<svg width="186.000000" height="22.000000" viewBox="0 0 186 22" fill="none" xmlns="http://www.w3.org/2000/svg" xmlns:xlink="http://www.w3.org/1999/xlink">
	<desc>
			Created with Pixso.
	</desc>
	<defs/>
	<path id="Bootstrap, Materialize" d="M152.25 6.6C152.25 7.07 151.85 7.45 151.36 7.45C150.87 7.45 150.46 7.07 150.46 6.6C150.46 6.13 150.87 5.75 151.36 5.75C151.85 5.75 152.25 6.13 152.25 6.6ZM167.83 6.6C167.83 7.07 167.43 7.45 166.94 7.45C166.44 7.45 166.04 7.07 166.04 6.6C166.04 6.13 166.44 5.75 166.94 5.75C167.43 5.75 167.83 6.13 167.83 6.6ZM35.26 17L31.32 17L31.32 6.09L35.13 6.09C37.41 6.09 38.48 7.39 38.48 8.98C38.48 10.39 37.65 11.01 36.71 11.26L36.71 11.37C37.71 11.43 38.9 12.37 38.9 14.1C38.9 15.74 37.84 17 35.26 17ZM109.32 17L109.32 6.09L110.9 6.09L114.61 15.14L114.73 15.14L118.44 6.09L120.02 6.09L120.02 17L118.78 17L118.78 8.71L118.67 8.71L115.27 17L114.07 17L110.66 8.71L110.56 8.71L110.56 17L109.32 17ZM162.74 6.09L163.99 6.09L163.99 17L162.74 17L162.74 6.09ZM60.61 8.81L62.36 8.81L62.36 9.88L60.61 9.88L60.61 14.65C60.61 15.72 61.14 15.89 61.7 15.89C61.98 15.89 62.15 15.85 62.25 15.82L62.51 16.95C62.34 17.02 62.04 17.1 61.57 17.1C60.51 17.1 59.35 16.42 59.35 14.99L59.35 9.88L58.12 9.88L58.12 8.81L59.35 8.81L59.35 6.85L60.61 6.85L60.61 8.81ZM73.91 8.81L75.66 8.81L75.66 9.88L73.91 9.88L73.91 14.65C73.91 15.72 74.44 15.89 74.99 15.89C75.27 15.89 75.44 15.85 75.55 15.82L75.81 16.95C75.63 17.02 75.34 17.1 74.87 17.1C73.8 17.1 72.65 16.42 72.65 14.99L72.65 9.88L71.42 9.88L71.42 8.81L72.65 8.81L72.65 6.85L73.91 6.85L73.91 8.81ZM132.76 8.81L134.51 8.81L134.51 9.88L132.76 9.88L132.76 14.65C132.76 15.72 133.29 15.89 133.84 15.89C134.12 15.89 134.29 15.85 134.4 15.82L134.66 16.95C134.48 17.02 134.19 17.1 133.72 17.1C132.65 17.1 131.5 16.42 131.5 14.99L131.5 9.88L130.27 9.88L130.27 8.81L131.5 8.81L131.5 6.85L132.76 6.85L132.76 8.81ZM32.64 7.26L32.64 10.88L35.09 10.88C36.28 10.88 37.22 10.14 37.22 8.98C37.22 8.03 36.58 7.26 35.13 7.26L32.64 7.26ZM78.81 17L77.55 17L77.55 8.81L78.77 8.81L78.77 10.05L78.85 10.05C79.15 9.24 80 8.69 80.98 8.69C81.17 8.69 81.5 8.7 81.64 8.71L81.64 9.99C81.56 9.96 81.21 9.9 80.88 9.9C79.68 9.9 78.81 10.71 78.81 11.82L78.81 17ZM146.39 17L145.14 17L145.14 8.81L146.35 8.81L146.35 10.05L146.44 10.05C146.74 9.24 147.59 8.69 148.57 8.69C148.75 8.69 149.08 8.7 149.23 8.71L149.23 9.99C149.14 9.96 148.8 9.9 148.46 9.9C147.27 9.9 146.39 10.71 146.39 11.82L146.39 17ZM47.93 12.95C47.93 15.48 46.44 17.17 44.23 17.17C42.01 17.17 40.52 15.48 40.52 12.95C40.52 10.39 42.01 8.71 44.23 8.71C46.44 8.71 47.93 10.39 47.93 12.95ZM56.88 12.95C56.88 15.48 55.39 17.17 53.18 17.17C50.96 17.17 49.47 15.48 49.47 12.95C49.47 10.39 50.96 8.71 53.18 8.71C55.39 8.71 56.88 10.39 56.88 12.95ZM67.15 8.71C68.77 8.71 69.66 9.48 70.05 10.64L68.92 10.96C68.71 10.4 68.25 9.79 67.15 9.79C66.15 9.79 65.41 10.3 65.41 11.01C65.41 11.64 65.85 11.96 66.81 12.2L68.03 12.5C69.49 12.86 70.2 13.57 70.2 14.71C70.2 16.13 68.91 17.17 67.01 17.17C65.33 17.17 64.19 16.42 63.89 15.04L65.09 14.74C65.31 15.61 65.95 16.06 66.98 16.06C68.16 16.06 68.9 15.48 68.9 14.78C68.9 14.22 68.51 13.82 67.69 13.63L66.32 13.31C64.82 12.96 64.15 12.2 64.15 11.07C64.15 9.69 65.43 8.71 67.15 8.71ZM87.97 15.89C87.71 16.42 86.97 17.19 85.54 17.19C83.99 17.19 82.75 16.27 82.75 14.67C82.75 12.8 84.41 12.46 85.92 12.26C87.42 12.07 88.03 12.13 88.03 11.52L88.03 11.48C88.03 10.43 87.47 9.81 86.31 9.81C85.11 9.81 84.46 10.45 84.18 11.05L82.98 10.62C83.62 9.13 85.03 8.71 86.26 8.71C87.31 8.71 89.29 9 89.29 11.6L89.29 17L88.03 17L88.03 15.89L87.97 15.89ZM92.85 20.06L91.59 20.06L91.59 8.81L92.81 8.81L92.81 10.11L92.96 10.11C93.23 9.69 93.72 8.71 95.32 8.71C97.39 8.71 98.82 10.35 98.82 12.93C98.82 15.53 97.39 17.17 95.34 17.17C93.77 17.17 93.23 16.19 92.96 15.74L92.85 15.74L92.85 20.06ZM127.33 15.89C127.07 16.42 126.32 17.19 124.9 17.19C123.34 17.19 122.1 16.27 122.1 14.67C122.1 12.8 123.76 12.46 125.28 12.26C126.77 12.07 127.39 12.13 127.39 11.52L127.39 11.48C127.39 10.43 126.82 9.81 125.66 9.81C124.47 9.81 123.81 10.45 123.53 11.05L122.34 10.62C122.98 9.13 124.38 8.71 125.62 8.71C126.67 8.71 128.65 9 128.65 11.6L128.65 17L127.39 17L127.39 15.89L127.33 15.89ZM143.09 15.1C142.71 16.34 141.5 17.17 139.83 17.17C137.47 17.17 136.02 15.48 136.02 12.97C136.02 10.45 137.49 8.71 139.7 8.71C141.41 8.71 143.22 9.75 143.22 12.8L143.22 13.33L137.28 13.33C137.34 15.08 138.36 16.04 139.83 16.04C140.82 16.04 141.56 15.61 141.88 14.76L143.09 15.1ZM159.12 15.89C158.86 16.42 158.11 17.19 156.69 17.19C155.13 17.19 153.89 16.27 153.89 14.67C153.89 12.8 155.55 12.46 157.07 12.26C158.56 12.07 159.18 12.13 159.18 11.52L159.18 11.48C159.18 10.43 158.61 9.81 157.45 9.81C156.25 9.81 155.6 10.45 155.32 11.05L154.13 10.62C154.77 9.13 156.17 8.71 157.41 8.71C158.46 8.71 160.44 9 160.44 11.6L160.44 17L159.18 17L159.18 15.89L159.12 15.89ZM184.66 15.1C184.28 16.34 183.06 17.17 181.4 17.17C179.04 17.17 177.59 15.48 177.59 12.97C177.59 10.45 179.06 8.71 181.27 8.71C182.98 8.71 184.79 9.75 184.79 12.8L184.79 13.33L178.85 13.33C178.91 15.08 179.93 16.04 181.4 16.04C182.39 16.04 183.13 15.61 183.45 14.76L184.66 15.1ZM151.98 17L150.72 17L150.72 8.81L151.98 8.81L151.98 17ZM167.55 17L166.29 17L166.29 8.81L167.55 8.81L167.55 17ZM176.03 17L169.62 17L169.62 16.04L174.27 10.07L174.27 9.99L169.77 9.99L169.77 8.81L175.88 8.81L175.88 9.81L171.37 15.74L171.37 15.82L176.03 15.82L176.03 17ZM41.78 12.95C41.78 14.59 42.54 16.04 44.23 16.04C45.91 16.04 46.68 14.59 46.68 12.95C46.68 11.31 45.91 9.84 44.23 9.84C42.54 9.84 41.78 11.31 41.78 12.95ZM50.73 12.95C50.73 14.59 51.49 16.04 53.18 16.04C54.86 16.04 55.63 14.59 55.63 12.95C55.63 11.31 54.86 9.84 53.18 9.84C51.49 9.84 50.73 11.31 50.73 12.95ZM95.17 9.84C93.64 9.84 92.83 11.07 92.83 12.9C92.83 14.76 93.66 16.04 95.17 16.04C96.75 16.04 97.56 14.65 97.56 12.9C97.56 11.18 96.77 9.84 95.17 9.84ZM139.7 9.84C138.27 9.84 137.36 10.97 137.28 12.25L141.94 12.25C141.94 10.86 141.07 9.84 139.7 9.84ZM181.27 9.84C179.83 9.84 178.93 10.97 178.85 12.25L183.51 12.25C183.51 10.86 182.64 9.84 181.27 9.84ZM32.64 12.03L32.64 15.82L35.26 15.82C36.98 15.82 37.65 15.06 37.65 14.1C37.65 12.99 36.75 12.03 35.32 12.03L32.64 12.03ZM84.01 14.74C84.01 15.61 84.73 16.06 85.73 16.06C87.22 16.06 88.03 15.06 88.03 14.03L88.03 12.88C87.82 13.14 86.39 13.29 85.86 13.35C84.88 13.48 84.01 13.78 84.01 14.74ZM123.36 14.74C123.36 15.61 124.09 16.06 125.09 16.06C126.58 16.06 127.39 15.06 127.39 14.03L127.39 12.88C127.18 13.14 125.75 13.29 125.22 13.35C124.23 13.48 123.36 13.78 123.36 14.74ZM155.15 14.74C155.15 15.61 155.88 16.06 156.88 16.06C158.37 16.06 159.18 15.06 159.18 14.03L159.18 12.88C158.96 13.14 157.54 13.29 157 13.35C156.02 13.48 155.15 13.78 155.15 14.74ZM101.25 15.5L102.61 15.5L102.52 16.08C102.34 17.29 101.8 18.93 101.54 19.66L100.58 19.66C100.72 18.98 101.03 17.54 101.18 16.1L101.25 15.5Z" fill="#767676" fill-opacity="1.000000" fill-rule="evenodd"/>
	<rect id="Icons" width="15.000000" height="13.750000" transform="translate(0.000000 3.666504)" fill="#FFFFFF" fill-opacity="0"/>
	<rect id="Icons" width="15.000000" height="13.750000" transform="translate(0.000000 3.666504)" fill="#FFFFFF" fill-opacity="0"/>
	<rect id="Icons" width="15.000000" height="13.750000" transform="translate(0.000000 3.666504)" fill="#FFFFFF" fill-opacity="0"/>
	<rect id="Icons" width="15.000000" height="13.750000" transform="translate(0.000000 3.666504)" fill="#FFFFFF" fill-opacity="0"/>
	<rect id="Rectangle 22" x="0.500000" y="4.166504" width="9.000000" height="8.166667" stroke="#FFB400" stroke-opacity="1.000000" stroke-width="1.000000"/>
	<rect id="Rectangle 23" x="5.500000" y="8.750000" width="9.000000" height="8.166667" stroke="#FFB400" stroke-opacity="1.000000" stroke-width="1.000000"/>
	<rect id="Icons" width="15.000000" height="13.750000" transform="translate(0.000000 3.666504)" fill="#FFFFFF" fill-opacity="0"/>
	<rect id="Icons" width="15.000000" height="13.750000" transform="translate(0.000000 3.666504)" fill="#FFFFFF" fill-opacity="0"/>
	<rect id="Rectangle 22" x="0.500000" y="4.166504" width="9.000000" height="8.166667" stroke="#FFB400" stroke-opacity="1.000000" stroke-width="1.000000"/>
	<rect id="Rectangle 23" x="5.500000" y="8.750000" width="9.000000" height="8.166667" stroke="#FFB400" stroke-opacity="1.000000" stroke-width="1.000000"/>
</svg>
