<svg width="139.000000" height="24.000000" viewBox="0 0 139 24" fill="none" xmlns="http://www.w3.org/2000/svg" xmlns:xlink="http://www.w3.org/1999/xlink">
	<desc>
			Created with Pixso.
	</desc>
	<defs/>
	<path id="GIT Knowledge" d="M40.14 9.5L38.77 9.5C38.31 8.06 37.24 7.17 35.66 7.17C33.72 7.17 32.17 8.71 32.17 11.54C32.17 14.37 33.72 15.91 35.75 15.91C37.6 15.91 38.89 14.67 38.92 12.71L36.04 12.71L36.04 11.54L40.2 11.54L40.2 12.71C40.2 15.41 38.35 17.15 35.75 17.15C32.85 17.15 30.89 14.99 30.89 11.54C30.89 8.09 32.87 5.94 35.66 5.94C37.96 5.94 39.73 7.39 40.14 9.5ZM42.46 6.09L43.78 6.09L43.78 17L42.46 17L42.46 6.09ZM49.26 7.26L45.83 7.26L45.83 6.09L54.01 6.09L54.01 7.26L50.58 7.26L50.58 17L49.26 17L49.26 7.26ZM61.59 17L60.27 17L60.27 6.09L61.59 6.09L61.59 11.5L61.72 11.5L66.62 6.09L68.35 6.09L63.77 11.01L68.35 17L66.75 17L62.96 11.92L61.59 13.46L61.59 17ZM99.8 6.09L101.05 6.09L101.05 17L99.8 17L99.8 6.09ZM117.56 15.74C117.29 16.19 116.76 17.17 115.18 17.17C113.13 17.17 111.71 15.53 111.71 12.93C111.71 10.35 113.13 8.71 115.2 8.71C116.8 8.71 117.29 9.69 117.56 10.11L117.67 10.11L117.67 6.09L118.93 6.09L118.93 17L117.72 17L117.72 15.74L117.56 15.74ZM73.23 9.84C72.02 9.84 71.14 10.64 71.14 12.07L71.14 17L69.88 17L69.88 8.81L71.1 8.81L71.1 10.09L71.2 10.09C71.59 9.26 72.35 8.71 73.59 8.71C75.25 8.71 76.36 9.71 76.36 11.79L76.36 17L75.1 17L75.1 11.88C75.1 10.6 74.39 9.84 73.23 9.84ZM85.69 12.95C85.69 15.48 84.2 17.17 81.98 17.17C79.77 17.17 78.27 15.48 78.27 12.95C78.27 10.39 79.77 8.71 81.98 8.71C84.2 8.71 85.69 10.39 85.69 12.95ZM110.04 15.1C109.66 16.34 108.45 17.17 106.79 17.17C104.42 17.17 102.97 15.48 102.97 12.97C102.97 10.45 104.44 8.71 106.66 8.71C108.36 8.71 110.17 9.75 110.17 12.8L110.17 13.33L104.23 13.33C104.29 15.08 105.31 16.04 106.79 16.04C107.77 16.04 108.51 15.61 108.83 14.76L110.04 15.1ZM128.24 17.23C128.24 19.34 126.66 20.23 124.7 20.23C122.88 20.23 121.87 19.45 121.36 18.59L122.36 17.89C122.7 18.34 123.22 19.13 124.7 19.13C126.03 19.13 126.99 18.51 126.99 17.15L126.99 15.48L126.88 15.48C126.6 15.93 126.09 16.87 124.49 16.87C122.51 16.87 121.02 15.42 121.02 12.86C121.02 10.35 122.44 8.71 124.51 8.71C126.11 8.71 126.62 9.69 126.9 10.11L127.03 10.11L127.03 8.81L128.24 8.81L128.24 17.23ZM137.23 15.1C136.85 16.34 135.64 17.17 133.97 17.17C131.61 17.17 130.16 15.48 130.16 12.97C130.16 10.45 131.63 8.71 133.84 8.71C135.55 8.71 137.36 9.75 137.36 12.8L137.36 13.33L131.42 13.33C131.48 15.08 132.5 16.04 133.97 16.04C134.96 16.04 135.7 15.61 136.02 14.76L137.23 15.1ZM90.7 17L89.46 17L86.97 8.81L88.29 8.81L90.06 15.08L90.15 15.08L91.89 8.81L93.23 8.81L94.96 15.06L95.05 15.06L96.81 8.81L98.13 8.81L95.64 17L94.4 17L92.61 10.71L92.49 10.71L90.7 17ZM79.53 12.95C79.53 14.59 80.3 16.04 81.98 16.04C83.67 16.04 84.43 14.59 84.43 12.95C84.43 11.31 83.67 9.84 81.98 9.84C80.3 9.84 79.53 11.31 79.53 12.95ZM106.66 9.84C105.22 9.84 104.32 10.97 104.23 12.25L108.89 12.25C108.89 10.86 108.02 9.84 106.66 9.84ZM112.97 12.9C112.97 14.65 113.77 16.04 115.35 16.04C116.86 16.04 117.69 14.76 117.69 12.9C117.69 11.07 116.88 9.84 115.35 9.84C113.75 9.84 112.97 11.18 112.97 12.9ZM122.28 12.84C122.28 14.55 123.09 15.74 124.66 15.74C126.17 15.74 127 14.65 127 12.84C127 11.07 126.19 9.84 124.66 9.84C123.06 9.84 122.28 11.18 122.28 12.84ZM133.84 9.84C132.41 9.84 131.5 10.97 131.42 12.25L136.08 12.25C136.08 10.86 135.21 9.84 133.84 9.84Z" fill="#767676" fill-opacity="1.000000" fill-rule="evenodd"/>
	<rect id="Icons" width="15.000000" height="15.000000" transform="translate(0.000000 4.000000)" fill="#FFFFFF" fill-opacity="0"/>
	<rect id="Icons" width="15.000000" height="15.000000" transform="translate(0.000000 4.000000)" fill="#FFFFFF" fill-opacity="0"/>
	<rect id="Icons" width="15.000000" height="15.000000" transform="translate(0.000000 4.000000)" fill="#FFFFFF" fill-opacity="0"/>
	<rect id="Icons" width="15.000000" height="15.000000" transform="translate(0.000000 4.000000)" fill="#FFFFFF" fill-opacity="0"/>
	<rect id="Rectangle 22" x="0.500000" y="4.500000" width="9.000000" height="9.000000" stroke="#FFB400" stroke-opacity="1.000000" stroke-width="1.000000"/>
	<rect id="Rectangle 23" x="5.500000" y="9.500000" width="9.000000" height="9.000000" stroke="#FFB400" stroke-opacity="1.000000" stroke-width="1.000000"/>
	<rect id="Icons" width="15.000000" height="15.000000" transform="translate(0.000000 4.000000)" fill="#FFFFFF" fill-opacity="0"/>
	<rect id="Icons" width="15.000000" height="15.000000" transform="translate(0.000000 4.000000)" fill="#FFFFFF" fill-opacity="0"/>
	<rect id="Rectangle 22" x="0.500000" y="4.500000" width="9.000000" height="9.000000" stroke="#FFB400" stroke-opacity="1.000000" stroke-width="1.000000"/>
	<rect id="Rectangle 23" x="5.500000" y="9.500000" width="9.000000" height="9.000000" stroke="#FFB400" stroke-opacity="1.000000" stroke-width="1.000000"/>
</svg>
