<svg width="186.000000" height="24.000000" viewBox="0 0 186 24" fill="none" xmlns="http://www.w3.org/2000/svg" xmlns:xlink="http://www.w3.org/1999/xlink">
	<desc>
			Created with Pixso.
	</desc>
	<defs/>
	<path id="Gulp, Webpack, Grunt" d="M40.14 9.5L38.77 9.5C38.31 8.06 37.24 7.17 35.66 7.17C33.72 7.17 32.17 8.71 32.17 11.54C32.17 14.37 33.72 15.91 35.75 15.91C37.6 15.91 38.89 14.67 38.92 12.71L36.04 12.71L36.04 11.54L40.2 11.54L40.2 12.71C40.2 15.41 38.35 17.15 35.75 17.15C32.85 17.15 30.89 14.99 30.89 11.54C30.89 8.09 32.87 5.94 35.66 5.94C37.96 5.94 39.73 7.39 40.14 9.5ZM155.94 9.5L154.58 9.5C154.11 8.06 153.04 7.17 151.47 7.17C149.53 7.17 147.97 8.71 147.97 11.54C147.97 14.37 149.53 15.91 151.55 15.91C153.4 15.91 154.69 14.67 154.73 12.71L151.85 12.71L151.85 11.54L156 11.54L156 12.71C156 15.41 154.15 17.15 151.55 17.15C148.65 17.15 146.69 14.99 146.69 11.54C146.69 8.09 148.67 5.94 151.47 5.94C153.77 5.94 155.53 7.39 155.94 9.5ZM51 6.09L52.26 6.09L52.26 17L51 17L51 6.09ZM75.63 17L74.27 17L71.29 6.09L72.63 6.09L74.91 14.97L75.01 14.97L77.34 6.09L78.83 6.09L81.15 14.97L81.26 14.97L83.54 6.09L84.88 6.09L81.9 17L80.53 17L78.13 8.3L78.04 8.3L75.63 17ZM96.47 17L95.26 17L95.26 6.09L96.51 6.09L96.51 10.11L96.62 10.11C96.9 9.69 97.39 8.71 98.99 8.71C101.05 8.71 102.48 10.35 102.48 12.93C102.48 15.53 101.05 17.17 99.01 17.17C97.43 17.17 96.9 16.19 96.62 15.74L96.47 15.74L96.47 17ZM131.63 17L130.37 17L130.37 6.09L131.63 6.09L131.63 12.46L131.78 12.46L135.36 8.81L136.91 8.81L133.45 12.31L137.17 17L135.57 17L132.51 13.12L131.63 13.93L131.63 17ZM182.98 8.81L184.73 8.81L184.73 9.88L182.98 9.88L182.98 14.65C182.98 15.72 183.51 15.89 184.06 15.89C184.34 15.89 184.51 15.85 184.62 15.82L184.88 16.95C184.7 17.02 184.41 17.1 183.94 17.1C182.87 17.1 181.72 16.42 181.72 14.99L181.72 9.88L180.49 9.88L180.49 8.81L181.72 8.81L181.72 6.85L182.98 6.85L182.98 8.81ZM159.35 17L158.09 17L158.09 8.81L159.31 8.81L159.31 10.05L159.39 10.05C159.69 9.24 160.54 8.69 161.52 8.69C161.71 8.69 162.04 8.7 162.18 8.71L162.18 9.99C162.1 9.96 161.75 9.9 161.42 9.9C160.22 9.9 159.35 10.71 159.35 11.82L159.35 17ZM55.82 20.06L54.56 20.06L54.56 8.81L55.78 8.81L55.78 10.11L55.93 10.11C56.2 9.69 56.69 8.71 58.29 8.71C60.36 8.71 61.79 10.35 61.79 12.93C61.79 15.53 60.36 17.17 58.31 17.17C56.74 17.17 56.2 16.19 55.93 15.74L55.82 15.74L55.82 20.06ZM93.04 15.1C92.66 16.34 91.44 17.17 89.78 17.17C87.42 17.17 85.97 15.48 85.97 12.97C85.97 10.45 87.44 8.71 89.65 8.71C91.36 8.71 93.17 9.75 93.17 12.8L93.17 13.33L87.23 13.33C87.29 15.08 88.31 16.04 89.78 16.04C90.77 16.04 91.51 15.61 91.83 14.76L93.04 15.1ZM105.65 20.06L104.4 20.06L104.4 8.81L105.61 8.81L105.61 10.11L105.76 10.11C106.04 9.69 106.53 8.71 108.13 8.71C110.2 8.71 111.62 10.35 111.62 12.93C111.62 15.53 110.2 17.17 108.15 17.17C106.57 17.17 106.04 16.19 105.76 15.74L105.65 15.74L105.65 20.06ZM118.38 15.89C118.12 16.42 117.37 17.19 115.95 17.19C114.39 17.19 113.15 16.27 113.15 14.67C113.15 12.8 114.81 12.46 116.33 12.26C117.82 12.07 118.44 12.13 118.44 11.52L118.44 11.48C118.44 10.43 117.87 9.81 116.71 9.81C115.52 9.81 114.86 10.45 114.58 11.05L113.39 10.62C114.03 9.13 115.44 8.71 116.67 8.71C117.72 8.71 119.7 9 119.7 11.6L119.7 17L118.44 17L118.44 15.89L118.38 15.89ZM128.54 14.61C128.33 16.06 127.13 17.17 125.32 17.17C123.02 17.17 121.61 15.4 121.61 12.95C121.61 10.45 123.09 8.71 125.3 8.71C127.03 8.71 128.33 9.73 128.54 11.26L127.28 11.26C127.09 10.52 126.43 9.84 125.32 9.84C123.85 9.84 122.87 11.05 122.87 12.9C122.87 14.8 123.83 16.04 125.32 16.04C126.3 16.04 127.05 15.5 127.28 14.61L128.54 14.61ZM175.74 9.84C174.53 9.84 173.64 10.64 173.64 12.07L173.64 17L172.39 17L172.39 8.81L173.6 8.81L173.6 10.09L173.71 10.09C174.09 9.26 174.86 8.71 176.1 8.71C177.75 8.71 178.87 9.71 178.87 11.79L178.87 17L177.61 17L177.61 11.88C177.61 10.6 176.9 9.84 175.74 9.84ZM45.34 15.89C46.27 15.89 47.44 15.18 47.44 13.65L47.44 8.81L48.7 8.81L48.7 17L47.44 17L47.44 15.61L47.36 15.61C46.98 16.44 46.17 17.1 44.93 17.1C43.4 17.1 42.29 16.1 42.29 14.01L42.29 8.81L43.54 8.81L43.54 13.93C43.54 15.12 44.29 15.89 45.34 15.89ZM166.72 15.89C167.66 15.89 168.83 15.18 168.83 13.65L168.83 8.81L170.09 8.81L170.09 17L168.83 17L168.83 15.61L168.75 15.61C168.36 16.44 167.55 17.1 166.32 17.1C164.78 17.1 163.67 16.1 163.67 14.01L163.67 8.81L164.93 8.81L164.93 13.93C164.93 15.12 165.68 15.89 166.72 15.89ZM58.14 9.84C56.61 9.84 55.8 11.07 55.8 12.9C55.8 14.76 56.63 16.04 58.14 16.04C59.72 16.04 60.53 14.65 60.53 12.9C60.53 11.18 59.74 9.84 58.14 9.84ZM89.65 9.84C88.21 9.84 87.31 10.97 87.23 12.25L91.89 12.25C91.89 10.86 91.02 9.84 89.65 9.84ZM98.84 9.84C97.3 9.84 96.49 11.07 96.49 12.9C96.49 14.76 97.32 16.04 98.84 16.04C100.42 16.04 101.22 14.65 101.22 12.9C101.22 11.18 100.44 9.84 98.84 9.84ZM107.98 9.84C106.45 9.84 105.64 11.07 105.64 12.9C105.64 14.76 106.47 16.04 107.98 16.04C109.55 16.04 110.36 14.65 110.36 12.9C110.36 11.18 109.58 9.84 107.98 9.84ZM114.41 14.74C114.41 15.61 115.14 16.06 116.14 16.06C117.63 16.06 118.44 15.06 118.44 14.03L118.44 12.88C118.23 13.14 116.8 13.29 116.27 13.35C115.29 13.48 114.41 13.78 114.41 14.74ZM64.21 15.5L65.58 15.5L65.49 16.08C65.31 17.29 64.77 18.93 64.51 19.66L63.55 19.66C63.69 18.98 63.99 17.54 64.15 16.1L64.21 15.5ZM139.04 15.5L140.41 15.5L140.32 16.08C140.14 17.29 139.6 18.93 139.34 19.66L138.38 19.66C138.52 18.98 138.82 17.54 138.98 16.1L139.04 15.5Z" fill="#767676" fill-opacity="1.000000" fill-rule="evenodd"/>
	<rect id="Icons" width="15.000000" height="15.000000" transform="translate(0.000000 4.000000)" fill="#FFFFFF" fill-opacity="0"/>
	<rect id="Icons" width="15.000000" height="15.000000" transform="translate(0.000000 4.000000)" fill="#FFFFFF" fill-opacity="0"/>
	<rect id="Icons" width="15.000000" height="15.000000" transform="translate(0.000000 4.000000)" fill="#FFFFFF" fill-opacity="0"/>
	<rect id="Icons" width="15.000000" height="15.000000" transform="translate(0.000000 4.000000)" fill="#FFFFFF" fill-opacity="0"/>
	<rect id="Rectangle 22" x="0.500000" y="4.500000" width="9.000000" height="9.000000" stroke="#FFB400" stroke-opacity="1.000000" stroke-width="1.000000"/>
	<rect id="Rectangle 23" x="5.500000" y="9.500000" width="9.000000" height="9.000000" stroke="#FFB400" stroke-opacity="1.000000" stroke-width="1.000000"/>
	<rect id="Icons" width="15.000000" height="15.000000" transform="translate(0.000000 4.000000)" fill="#FFFFFF" fill-opacity="0"/>
	<rect id="Icons" width="15.000000" height="15.000000" transform="translate(0.000000 4.000000)" fill="#FFFFFF" fill-opacity="0"/>
	<rect id="Rectangle 22" x="0.500000" y="4.500000" width="9.000000" height="9.000000" stroke="#FFB400" stroke-opacity="1.000000" stroke-width="1.000000"/>
	<rect id="Rectangle 23" x="5.500000" y="9.500000" width="9.000000" height="9.000000" stroke="#FFB400" stroke-opacity="1.000000" stroke-width="1.000000"/>
</svg>
