<svg width="157.000000" height="24.000000" viewBox="0 0 157 24" fill="none" xmlns="http://www.w3.org/2000/svg" xmlns:xlink="http://www.w3.org/1999/xlink">
	<desc>
			Created with Pixso.
	</desc>
	<defs/>
	<path id="Stylus, Sass, Less" d="M38.56 8.81L37.28 8.81C37.15 7.74 36.15 7.11 34.83 7.11C33.38 7.11 32.42 7.88 32.42 8.92C32.42 10.09 33.72 10.52 34.53 10.73L35.64 11.03C36.77 11.33 38.71 11.99 38.71 14.03C38.71 15.8 37.28 17.19 34.77 17.19C32.42 17.19 30.98 15.97 30.85 14.18L32.21 14.18C32.32 15.42 33.47 16 34.77 16C36.28 16 37.43 15.2 37.43 14.01C37.43 12.93 36.41 12.52 35.26 12.2L33.92 11.82C32.21 11.33 31.14 10.45 31.14 8.98C31.14 7.15 32.79 5.94 34.87 5.94C36.98 5.94 38.5 7.17 38.56 8.81ZM90.46 8.81L89.19 8.81C89.06 7.74 88.05 7.11 86.74 7.11C85.29 7.11 84.33 7.88 84.33 8.92C84.33 10.09 85.63 10.52 86.44 10.73L87.55 11.03C88.67 11.33 90.61 11.99 90.61 14.03C90.61 15.8 89.19 17.19 86.67 17.19C84.33 17.19 82.88 15.97 82.75 14.18L84.11 14.18C84.22 15.42 85.37 16 86.67 16C88.18 16 89.34 15.2 89.34 14.01C89.34 12.93 88.31 12.52 87.16 12.2L85.82 11.82C84.11 11.33 83.05 10.45 83.05 8.98C83.05 7.15 84.69 5.94 86.78 5.94C88.89 5.94 90.41 7.17 90.46 8.81ZM54.52 6.09L55.77 6.09L55.77 17L54.52 17L54.52 6.09ZM131.73 17L125.34 17L125.34 6.09L126.66 6.09L126.66 15.82L131.73 15.82L131.73 17ZM42.52 8.81L44.27 8.81L44.27 9.88L42.52 9.88L42.52 14.65C42.52 15.72 43.06 15.89 43.61 15.89C43.89 15.89 44.06 15.85 44.17 15.82L44.42 16.95C44.25 17.02 43.95 17.1 43.48 17.1C42.42 17.1 41.26 16.42 41.26 14.99L41.26 9.88L40.03 9.88L40.03 8.81L41.26 8.81L41.26 6.85L42.52 6.85L42.52 8.81ZM69.69 8.71C71.31 8.71 72.19 9.48 72.59 10.64L71.46 10.96C71.24 10.4 70.79 9.79 69.69 9.79C68.69 9.79 67.94 10.3 67.94 11.01C67.94 11.64 68.38 11.96 69.35 12.2L70.56 12.5C72.02 12.86 72.73 13.57 72.73 14.71C72.73 16.13 71.44 17.17 69.54 17.17C67.87 17.17 66.72 16.42 66.43 15.04L67.62 14.74C67.85 15.61 68.49 16.06 69.52 16.06C70.69 16.06 71.44 15.48 71.44 14.78C71.44 14.22 71.05 13.82 70.22 13.63L68.86 13.31C67.36 12.96 66.69 12.2 66.69 11.07C66.69 9.69 67.96 8.71 69.69 8.71ZM97.45 15.89C97.2 16.42 96.45 17.19 95.02 17.19C93.47 17.19 92.23 16.27 92.23 14.67C92.23 12.8 93.89 12.46 95.41 12.26C96.9 12.07 97.52 12.13 97.52 11.52L97.52 11.48C97.52 10.43 96.95 9.81 95.79 9.81C94.59 9.81 93.94 10.45 93.66 11.05L92.46 10.62C93.11 9.13 94.51 8.71 95.75 8.71C96.79 8.71 98.77 9 98.77 11.6L98.77 17L97.52 17L97.52 15.89L97.45 15.89ZM103.97 8.71C105.59 8.71 106.48 9.48 106.87 10.64L105.74 10.96C105.52 10.4 105.07 9.79 103.97 9.79C102.97 9.79 102.22 10.3 102.22 11.01C102.22 11.64 102.66 11.96 103.63 12.2L104.85 12.5C106.31 12.86 107.02 13.57 107.02 14.71C107.02 16.13 105.73 17.17 103.82 17.17C102.15 17.17 101 16.42 100.71 15.04L101.91 14.74C102.13 15.61 102.77 16.06 103.8 16.06C104.97 16.06 105.72 15.48 105.72 14.78C105.72 14.22 105.33 13.82 104.51 13.63L103.14 13.31C101.64 12.96 100.97 12.2 100.97 11.07C100.97 9.69 102.25 8.71 103.97 8.71ZM111.81 8.71C113.43 8.71 114.32 9.48 114.71 10.64L113.58 10.96C113.36 10.4 112.91 9.79 111.81 9.79C110.81 9.79 110.07 10.3 110.07 11.01C110.07 11.64 110.5 11.96 111.47 12.2L112.69 12.5C114.15 12.86 114.86 13.57 114.86 14.71C114.86 16.13 113.57 17.17 111.67 17.17C109.99 17.17 108.85 16.42 108.55 15.04L109.75 14.74C109.97 15.61 110.61 16.06 111.64 16.06C112.82 16.06 113.56 15.48 113.56 14.78C113.56 14.22 113.17 13.82 112.35 13.63L110.98 13.31C109.48 12.96 108.81 12.2 108.81 11.07C108.81 9.69 110.09 8.71 111.81 8.71ZM140.3 15.1C139.92 16.34 138.7 17.17 137.04 17.17C134.67 17.17 133.23 15.48 133.23 12.97C133.23 10.45 134.7 8.71 136.91 8.71C138.62 8.71 140.43 9.75 140.43 12.8L140.43 13.33L134.49 13.33C134.55 15.08 135.57 16.04 137.04 16.04C138.03 16.04 138.77 15.61 139.08 14.76L140.3 15.1ZM145.24 8.71C146.86 8.71 147.75 9.48 148.14 10.64L147.01 10.96C146.8 10.4 146.34 9.79 145.24 9.79C144.24 9.79 143.5 10.3 143.5 11.01C143.5 11.64 143.94 11.96 144.9 12.2L146.12 12.5C147.58 12.86 148.29 13.57 148.29 14.71C148.29 16.13 147 17.17 145.1 17.17C143.42 17.17 142.28 16.42 141.98 15.04L143.18 14.74C143.4 15.61 144.04 16.06 145.07 16.06C146.25 16.06 146.99 15.48 146.99 14.78C146.99 14.22 146.6 13.82 145.78 13.63L144.41 13.31C142.91 12.96 142.24 12.2 142.24 11.07C142.24 9.69 143.52 8.71 145.24 8.71ZM153.08 8.71C154.71 8.71 155.59 9.48 155.98 10.64L154.85 10.96C154.64 10.4 154.18 9.79 153.08 9.79C152.08 9.79 151.34 10.3 151.34 11.01C151.34 11.64 151.78 11.96 152.74 12.2L153.96 12.5C155.42 12.86 156.13 13.57 156.13 14.71C156.13 16.13 154.84 17.17 152.94 17.17C151.26 17.17 150.12 16.42 149.82 15.04L151.02 14.74C151.24 15.61 151.89 16.06 152.91 16.06C154.09 16.06 154.83 15.48 154.83 14.78C154.83 14.22 154.44 13.82 153.62 13.63L152.25 13.31C150.75 12.96 150.08 12.2 150.08 11.07C150.08 9.69 151.36 8.71 153.08 8.71ZM49.39 18.19C48.91 19.46 48.11 20.06 46.98 20.06C46.55 20.06 46.19 19.98 46.06 19.91L46.38 18.81C47.3 19.04 47.86 18.92 48.32 17.68L48.55 17.04L45.53 8.81L46.89 8.81L49.15 15.33L49.24 15.33L51.49 8.81L52.86 8.81L49.39 18.19ZM61.12 15.89C62.06 15.89 63.23 15.18 63.23 13.65L63.23 8.81L64.49 8.81L64.49 17L63.23 17L63.23 15.61L63.15 15.61C62.76 16.44 61.95 17.1 60.72 17.1C59.19 17.1 58.08 16.1 58.08 14.01L58.08 8.81L59.33 8.81L59.33 13.93C59.33 15.12 60.08 15.89 61.12 15.89ZM136.91 9.84C135.47 9.84 134.57 10.97 134.49 12.25L139.15 12.25C139.15 10.86 138.28 9.84 136.91 9.84ZM93.49 14.74C93.49 15.61 94.22 16.06 95.22 16.06C96.71 16.06 97.52 15.06 97.52 14.03L97.52 12.88C97.3 13.14 95.87 13.29 95.34 13.35C94.36 13.48 93.49 13.78 93.49 14.74ZM75.14 15.5L76.51 15.5L76.42 16.08C76.24 17.29 75.7 18.93 75.44 19.66L74.48 19.66C74.62 18.98 74.93 17.54 75.08 16.1L75.14 15.5ZM117.27 15.5L118.63 15.5L118.55 16.08C118.36 17.29 117.82 18.93 117.57 19.66L116.61 19.66C116.75 18.98 117.05 17.54 117.2 16.1L117.27 15.5Z" fill="#767676" fill-opacity="1.000000" fill-rule="evenodd"/>
	<rect id="Icons" width="15.000000" height="15.000000" transform="translate(0.000000 4.000000)" fill="#FFFFFF" fill-opacity="0"/>
	<rect id="Icons" width="15.000000" height="15.000000" transform="translate(0.000000 4.000000)" fill="#FFFFFF" fill-opacity="0"/>
	<rect id="Icons" width="15.000000" height="15.000000" transform="translate(0.000000 4.000000)" fill="#FFFFFF" fill-opacity="0"/>
	<rect id="Icons" width="15.000000" height="15.000000" transform="translate(0.000000 4.000000)" fill="#FFFFFF" fill-opacity="0"/>
	<rect id="Rectangle 22" x="0.500000" y="4.500000" width="9.000000" height="9.000000" stroke="#FFB400" stroke-opacity="1.000000" stroke-width="1.000000"/>
	<rect id="Rectangle 23" x="5.500000" y="9.500000" width="9.000000" height="9.000000" stroke="#FFB400" stroke-opacity="1.000000" stroke-width="1.000000"/>
	<rect id="Icons" width="15.000000" height="15.000000" transform="translate(0.000000 4.000000)" fill="#FFFFFF" fill-opacity="0"/>
	<rect id="Icons" width="15.000000" height="15.000000" transform="translate(0.000000 4.000000)" fill="#FFFFFF" fill-opacity="0"/>
	<rect id="Rectangle 22" x="0.500000" y="4.500000" width="9.000000" height="9.000000" stroke="#FFB400" stroke-opacity="1.000000" stroke-width="1.000000"/>
	<rect id="Rectangle 23" x="5.500000" y="9.500000" width="9.000000" height="9.000000" stroke="#FFB400" stroke-opacity="1.000000" stroke-width="1.000000"/>
</svg>
